<?xml version="1.0" encoding="UTF-8"?>
<svg class="MuiSvgIcon-root MuiSvgIcon-fontSizeSmall css-1k33q06" aria-hidden="true" focusable="false" viewBox="0 0 24 24" xmlns="http://www.w3.org/2000/svg">
  <svg width="24" height="24" fill="none" xmlns="http://www.w3.org/2000/svg">
    <path d="M18 11c1.6569 0 3-1.3431 3-3s-1.3431-3-3-3-3 1.3431-3 3 1.3431 3 3 3ZM6 19c1.6569 0 3-1.3431 3-3s-1.3431-3-3-3-3 1.3431-3 3 1.3431 3 3 3Z" fill="#fff" fill-opacity=".01"/>
    <path d="M3 8h12m0 0c0 1.6569 1.3431 3 3 3s3-1.3431 3-3-1.3431-3-3-3-3 1.3431-3 3Zm-6 8h12M9 16c0 1.6569-1.3431 3-3 3s-3-1.3431-3-3 1.3431-3 3-3 3 1.3431 3 3Z" stroke="currentColor" stroke-linecap="round" stroke-linejoin="round" stroke-width="2"/>
  </svg>
</svg>
